<svg width="20" height="20" viewBox="0 0 20 20" fill="none" xmlns="http://www.w3.org/2000/svg">
<path fill-rule="evenodd" clip-rule="evenodd" d="M13.4718 3.54702L9.85753 7.15845L6.24324 3.54416C6.05282 3.34585 5.82473 3.18755 5.57234 3.07853C5.31995 2.96951 5.04834 2.91197 4.77342 2.90928C4.4985 2.90659 4.22582 2.95881 3.97134 3.06287C3.71687 3.16693 3.48572 3.32074 3.29146 3.51529C3.0972 3.70983 2.94373 3.9412 2.84004 4.19583C2.73635 4.45046 2.68454 4.72322 2.68763 4.99813C2.69072 5.27304 2.74866 5.54457 2.85805 5.7968C2.96744 6.04903 3.12608 6.27689 3.32467 6.46702L6.93753 10.0813L3.32753 13.6913C2.95011 14.0813 2.74105 14.6039 2.74541 15.1466C2.74977 15.6892 2.96722 16.2084 3.35086 16.5923C3.7345 16.9761 4.25361 17.1938 4.79627 17.1984C5.33893 17.2031 5.86168 16.9942 6.25181 16.617L9.85753 12.9999L13.469 16.6127C13.6595 16.8107 13.8876 16.9686 14.14 17.0774C14.3923 17.1861 14.6637 17.2434 14.9385 17.246C15.2132 17.2486 15.4857 17.1964 15.7401 17.0925C15.9944 16.9886 16.2255 16.835 16.4198 16.6407C16.614 16.4464 16.7676 16.2153 16.8716 15.961C16.9755 15.7067 17.0277 15.4342 17.0251 15.1594C17.0225 14.8847 16.9652 14.6132 16.8564 14.3609C16.7477 14.1086 16.5897 13.8804 16.3918 13.6899L12.7861 10.0827L16.3961 6.47273C16.7735 6.08278 16.9826 5.56014 16.9782 5.01747C16.9739 4.47481 16.7564 3.95559 16.3728 3.57176C15.9891 3.18794 15.47 2.97024 14.9274 2.96561C14.3847 2.96098 13.8619 3.16979 13.4718 3.54702V3.54702Z" fill="white"/>
</svg>
