<svg width="213" height="74" viewBox="0 0 213 74" fill="none" xmlns="http://www.w3.org/2000/svg">
<path d="M24.582 58.2413C36.8716 58.2413 43.2557 47.6155 43.2557 36.1693C43.2557 24.7259 36.6836 14.4078 24.582 14.4078H14.1983V58.2413H24.582ZM24.7729 0.611328C46.019 0.611328 57.4511 17.8804 57.4511 36.0667C57.7389 54.3584 46.3039 72.0349 24.7729 72.0349H0V0.611328H24.7729Z" fill="#263244"/>
<path d="M72.2842 51.091C72.6659 57.1189 76.4776 59.8765 82.1922 59.8765C88.3854 59.8765 92.2911 55.5863 92.388 49.0456C92.1031 37.6022 82.1922 35.967 73.6174 37.6022V35.4571L85.907 12.7726H62.3733V0.611328H104.772V2.75927L90.2913 27.6914C100.963 29.6314 105.82 39.0351 105.82 48.943C105.82 61.6142 97.436 73.0604 82.3831 73.0604C69.9026 73.0604 60.2795 64.8845 59.8037 51.091H72.2842Z" fill="#263244"/>
<path d="M145.302 49.0467C145.302 41.6913 141.111 37.6005 134.251 37.6005C127.388 37.6005 123.104 41.6913 123.104 49.0467C123.104 56.3024 127.388 60.1852 134.251 60.1852C141.111 60.1852 145.302 56.3024 145.302 49.0467ZM148.447 0L133.203 26.875C134.251 26.2596 135.394 25.952 136.636 25.952C150.065 25.4449 159.5 34.333 159.5 49.0467C159.5 65.3956 148.447 73.1613 134.251 73.1613C120.056 73.1613 109.193 65.3956 109.193 49.0467C109.193 43.8364 110.908 38.1132 113.481 33.7205L132.824 0H148.447Z" fill="#263244"/>
<path d="M199.186 50.0665C199.377 48.3316 199.471 46.4914 199.471 44.3463V28.6099C199.471 26.5673 199.377 24.6245 199.186 22.787C198.517 16.3489 193.851 13.3862 188.039 13.3862C181.943 13.3862 177.464 16.3489 176.795 22.787C176.607 24.6245 176.51 26.5673 176.51 28.6099V44.3463C176.51 46.4914 176.607 48.3316 176.795 50.0665C177.464 56.2995 181.943 59.6725 188.039 59.6725C193.851 59.6725 198.517 56.2995 199.186 50.0665ZM212.812 24.4194V48.4342C212.812 63.9655 201.665 73.0558 188.039 73.0558C174.223 73.0558 163.078 63.9655 163.078 48.4342V24.4194C163.078 8.99061 174.223 0 188.039 0C201.665 0 212.812 8.99061 212.812 24.4194Z" fill="#263244"/>
</svg>
