<svg width="20" height="20" viewBox="0 0 20 20" fill="none" xmlns="http://www.w3.org/2000/svg">
<g clip-path="url(#clip0_5863_13466)">
<path d="M1.44571 1.72754H18.5586C18.9382 1.72937 19.302 1.88002 19.5718 2.14713C19.8416 2.41424 19.9958 2.77651 20.0014 3.15611V3.73754C20.0007 4.11984 19.8484 4.48625 19.5779 4.75645C19.3074 5.02665 18.9409 5.17859 18.5586 5.17897H1.44571C1.06365 5.17935 0.697005 5.02833 0.426045 4.75898C0.155084 4.48962 0.00188933 4.12388 0 3.74182L0 3.15897C0.00487345 2.77837 0.159203 2.41495 0.42968 2.14715C0.700156 1.87935 1.06509 1.72863 1.44571 1.72754V1.72754Z" fill="#263244"/>
<path d="M1.44571 8.27148H18.5586C18.9382 8.27331 19.302 8.42396 19.5718 8.69107C19.8416 8.95819 19.9958 9.32045 20.0014 9.70006V10.2858C20.001 10.6683 19.8489 11.0351 19.5784 11.3056C19.3079 11.5761 18.9411 11.7282 18.5586 11.7286H1.44571C1.25605 11.7288 1.0682 11.6916 0.892901 11.6192C0.717601 11.5468 0.558278 11.4406 0.424031 11.3066C0.289784 11.1726 0.183242 11.0135 0.110486 10.8384C0.0377308 10.6632 0.00018751 10.4754 0 10.2858L0 9.70291C0.00487345 9.32232 0.159203 8.9589 0.42968 8.6911C0.700156 8.42329 1.06509 8.27258 1.44571 8.27148Z" fill="#263244"/>
<path d="M10.7222 14.8174H18.5579C18.9375 14.8192 19.3013 14.9699 19.5711 15.237C19.8409 15.5041 19.9951 15.8663 20.0007 16.246V16.826C20.0003 17.2085 19.8482 17.5753 19.5777 17.8458C19.3072 18.1163 18.9404 18.2684 18.5579 18.2688H10.7222C10.3396 18.2684 9.97282 18.1163 9.70232 17.8458C9.43181 17.5753 9.27968 17.2085 9.2793 16.826V16.2445C9.28527 15.8652 9.4397 15.5033 9.70944 15.2365C9.97918 14.9697 10.3428 14.8192 10.7222 14.8174V14.8174Z" fill="#263244"/>
</g>
<defs>
<clipPath id="clip0_5863_13466">
<rect width="20" height="20" fill="#263244"/>
</clipPath>
</defs>
</svg>
