<svg xmlns="http://www.w3.org/2000/svg" role="img" viewBox="-0.82 -0.82 42.39 42.58"><path fill="#EB644C" d="M40.0533 0H26.7537C26.5544 0 26.3632 0.0797384 26.2228 0.222285L20.504 6.01589C20.3664 6.15571 20.2888 6.34413 20.2888 6.5402V18.4589L14.4858 12.6588C14.2914 12.4649 13.9763 12.4649 13.7818 12.6588L0.145825 26.287C-0.0486083 26.4814 -0.0486083 26.7965 0.145825 26.9904L13.7818 40.6192C13.9763 40.813 14.2914 40.813 14.4858 40.6192L20.2888 34.819V40.2494C20.2888 40.6618 20.623 40.9955 21.0354 40.9955H34.3437C34.5376 40.9955 34.7238 40.9195 34.8631 40.7846L40.5727 35.2428C40.7174 35.1019 40.7993 34.9086 40.7993 34.707V0.746047C40.7993 0.334246 40.4651 0 40.0533 0Z"/></svg>