<svg width="41" height="62" viewBox="0 0 41 62" fill="none" xmlns="http://www.w3.org/2000/svg">
<path d="M4.71282 59.0045C7.06896 59.0045 8.29291 56.9674 8.29291 54.7729C8.29291 52.579 7.03292 50.6008 4.71282 50.6008H2.72207V59.0045H4.71282ZM4.74942 47.9558C8.82269 47.9558 11.0144 51.2666 11.0144 54.7533C11.0696 58.2601 8.8773 61.649 4.74942 61.649H0V47.9558H4.74942Z" fill="#263244"/>
<path d="M13.8582 57.6337C13.9314 58.7893 14.6621 59.318 15.7577 59.318C16.9451 59.318 17.6939 58.4955 17.7124 57.2415C17.6578 55.0476 15.7577 54.7341 14.1138 55.0476V54.6364L16.4699 50.2873H11.9581V47.9558H20.0866V48.3676L17.3105 53.1476C19.3564 53.5195 20.2876 55.3223 20.2876 57.2219C20.2876 59.6512 18.6802 61.8456 15.7943 61.8456C13.4016 61.8456 11.5567 60.2782 11.4655 57.6337H13.8582Z" fill="#263244"/>
<path d="M27.8569 57.2418C27.8569 55.8316 27.0535 55.0473 25.7384 55.0473C24.4227 55.0473 23.6012 55.8316 23.6012 57.2418C23.6012 58.6328 24.4227 59.3772 25.7384 59.3772C27.0535 59.3772 27.8569 58.6328 27.8569 57.2418ZM28.4599 47.8386L25.5374 52.991C25.7384 52.8731 25.9574 52.8141 26.1955 52.8141C28.7701 52.7169 30.579 54.4209 30.579 57.2418C30.579 60.3762 28.4599 61.865 25.7384 61.865C23.0168 61.865 20.9343 60.3762 20.9343 57.2418C20.9343 56.2429 21.2631 55.1456 21.7563 54.3035L25.4647 47.8386H28.4599Z" fill="#263244"/>
<path d="M38.1877 57.4373C38.2243 57.1047 38.2423 56.7519 38.2423 56.3406V53.3237C38.2423 52.9321 38.2243 52.5596 38.1877 52.2073C38.0594 50.973 37.1648 50.405 36.0506 50.405C34.8818 50.405 34.0233 50.973 33.8949 52.2073C33.8589 52.5596 33.8403 52.9321 33.8403 53.3237V56.3406C33.8403 56.7519 33.8589 57.1047 33.8949 57.4373C34.0233 58.6323 34.8818 59.2789 36.0506 59.2789C37.1648 59.2789 38.0594 58.6323 38.1877 57.4373ZM40.8 52.5203V57.1243C40.8 60.102 38.6629 61.8448 36.0506 61.8448C33.4017 61.8448 31.2651 60.102 31.2651 57.1243V52.5203C31.2651 49.5623 33.4017 47.8386 36.0506 47.8386C38.6629 47.8386 40.8 49.5623 40.8 52.5203Z" fill="#263244"/>
<path d="M40.0533 0H26.7537C26.5544 0 26.3632 0.0797384 26.2228 0.222285L20.504 6.01589C20.3664 6.15571 20.2888 6.34413 20.2888 6.5402V18.4589L14.4858 12.6588C14.2914 12.4649 13.9763 12.4649 13.7818 12.6588L0.145825 26.287C-0.0486083 26.4814 -0.0486083 26.7965 0.145825 26.9904L13.7818 40.6192C13.9763 40.813 14.2914 40.813 14.4858 40.6192L20.2888 34.819V40.2494C20.2888 40.6618 20.623 40.9955 21.0354 40.9955H34.3437C34.5376 40.9955 34.7238 40.9195 34.8631 40.7846L40.5727 35.2428C40.7174 35.1019 40.7993 34.9086 40.7993 34.707V0.746047C40.7993 0.334246 40.4651 0 40.0533 0Z" fill="#EB644C"/>
</svg>
